<svg version="1.1" id="Layer_1" xmlns="http://www.w3.org/2000/svg" xmlns:xlink="http://www.w3.org/1999/xlink" x="0px" y="0px"
	 width="100%" viewBox="0 0 225 225" enable-background="new 0 0 225 225" xml:space="preserve">
<path fill="#013578" opacity="1.000000" stroke="none" 
	d="
M1.000000,119.000000 
	C1.000000,115.638710 1.000000,112.277428 1.382782,108.283554 
	C5.824512,54.252892 41.748222,13.496670 93.654381,3.446769 
	C98.415672,2.524903 103.217171,1.810657 108.000000,1.000000 
	C110.700012,1.000000 113.400032,1.000000 116.731987,1.387817 
	C170.802628,3.540500 214.440308,42.779415 223.562363,93.653320 
	C224.418442,98.427742 225.189468,103.217407 226.000000,108.000000 
	C226.000000,111.361290 226.000000,114.722572 225.617218,118.716461 
	C221.177536,172.752136 185.264297,213.510788 133.340988,223.537125 
	C127.936958,224.580627 122.449013,225.189484 117.000000,226.000000 
	C113.969406,226.000000 110.938812,226.000000 107.284653,225.620728 
	C52.859917,219.983109 13.448387,184.909592 3.447163,133.346344 
	C2.523679,128.585144 1.810716,123.783089 1.000000,119.000000 
M147.584213,94.866539 
	C145.026413,94.866539 142.468613,94.866539 139.359818,94.866539 
	C146.100052,71.942909 152.599472,49.838341 159.098892,27.733772 
	C158.480621,27.314528 157.862350,26.895283 157.244095,26.476038 
	C156.467117,27.741697 155.874451,29.177603 154.885880,30.247807 
	C136.238144,50.435459 117.486549,70.527634 98.921967,90.791199 
	C96.226273,93.733597 93.533997,94.985687 89.509270,94.956169 
	C65.020630,94.776596 40.530025,94.866547 16.040077,94.866547 
	C14.325273,94.866547 12.610467,94.866554 10.895662,94.866554 
	C10.895078,95.452744 10.894494,96.038925 10.893909,96.625114 
	C48.416470,98.153618 85.939026,99.682121 123.751984,101.222458 
	C123.868240,99.033035 123.969162,97.132484 124.098419,94.698235 
	C117.206566,94.698235 110.675552,94.698235 103.051651,94.698235 
	C114.444016,84.311264 124.970947,74.713356 136.384827,64.306770 
	C127.815430,109.227669 119.465836,152.996307 111.116241,196.764954 
	C111.581291,196.896927 112.046341,197.028915 112.511391,197.160889 
	C112.990952,195.899109 113.605927,194.671005 113.929581,193.370438 
	C118.222298,176.120331 122.601219,158.889648 126.630104,141.577652 
	C127.446434,138.069916 129.055359,136.270187 132.208466,134.785507 
	C158.054596,122.615494 183.820099,110.274178 209.601456,97.966805 
	C210.805557,97.391998 211.927933,96.645927 213.088364,95.979622 
	C212.977280,95.608589 212.866196,95.237564 212.755112,94.866539 
	C191.356827,94.866539 169.958557,94.866539 147.584213,94.866539 
M77.551079,161.951233 
	C89.122665,156.119003 100.696136,150.290497 112.265045,144.452957 
	C117.965462,141.576584 118.385757,140.725647 117.383430,133.861481 
	C92.970123,148.203247 68.664619,162.481674 44.359112,176.760117 
	C44.632298,177.260513 44.905479,177.760895 45.178665,178.261292 
	C55.740856,172.923691 66.303047,167.586075 77.551079,161.951233 
M55.775047,139.205078 
	C68.509674,127.458221 81.244301,115.711357 93.978935,103.964500 
	C93.763573,103.525009 93.548218,103.085510 93.332863,102.646011 
	C91.256912,103.146255 88.499863,102.965614 87.212090,104.253792 
	C76.298004,115.171318 65.641365,126.346680 54.976170,137.510284 
	C54.663509,137.837570 55.107960,138.888153 55.775047,139.205078 
z"/>
<path fill="#FDFDFE" opacity="1.000000" stroke="none" 
	d="
M226.000000,107.531342 
	C225.189468,103.217407 224.418442,98.427742 223.562363,93.653320 
	C214.440308,42.779415 170.802628,3.540500 117.181961,1.387817 
	C153.259598,1.000000 189.519211,1.000000 226.000000,1.000000 
	C226.000000,36.353920 226.000000,71.708305 226.000000,107.531342 
z"/>
<path fill="#FDFDFE" opacity="1.000000" stroke="none" 
	d="
M117.468658,226.000000 
	C122.449013,225.189484 127.936958,224.580627 133.340988,223.537125 
	C185.264297,213.510788 221.177536,172.752136 225.617218,119.174530 
	C226.000000,154.594284 226.000000,190.188583 226.000000,226.000000 
	C189.979401,226.000000 153.958359,226.000000 117.468658,226.000000 
z"/>
<path fill="#FDFDFE" opacity="1.000000" stroke="none" 
	d="
M107.531342,1.000000 
	C103.217171,1.810657 98.415672,2.524903 93.654381,3.446769 
	C41.748222,13.496670 5.824512,54.252892 1.382782,107.825485 
	C1.000000,72.406387 1.000000,36.812778 1.000000,1.000000 
	C36.353928,1.000000 71.708305,1.000000 107.531342,1.000000 
z"/>
<path fill="#FDFDFE" opacity="1.000000" stroke="none" 
	d="
M1.000000,119.468658 
	C1.810716,123.783089 2.523679,128.585144 3.447163,133.346344 
	C13.448387,184.909592 52.859917,219.983109 106.830551,225.620728 
	C71.739372,226.000000 36.478752,226.000000 1.000000,226.000000 
	C1.000000,190.646072 1.000000,155.291687 1.000000,119.468658 
z"/>
<path fill="#F8F9FA" opacity="1.000000" stroke="none" 
	d="
M148.072235,94.866539 
	C169.958557,94.866539 191.356827,94.866539 212.755112,94.866539 
	C212.866196,95.237564 212.977280,95.608589 213.088364,95.979622 
	C211.927933,96.645927 210.805557,97.391998 209.601456,97.966805 
	C183.820099,110.274178 158.054596,122.615494 132.208466,134.785507 
	C129.055359,136.270187 127.446434,138.069916 126.630104,141.577652 
	C122.601219,158.889648 118.222298,176.120331 113.929581,193.370438 
	C113.605927,194.671005 112.990952,195.899109 112.511391,197.160889 
	C112.046341,197.028915 111.581291,196.896927 111.116241,196.764954 
	C119.465836,152.996307 127.815430,109.227669 136.384827,64.306770 
	C124.970947,74.713356 114.444016,84.311264 103.051651,94.698235 
	C110.675552,94.698235 117.206566,94.698235 124.098419,94.698235 
	C123.969162,97.132484 123.868240,99.033035 123.751984,101.222458 
	C85.939026,99.682121 48.416470,98.153618 10.893909,96.625114 
	C10.894494,96.038925 10.895078,95.452744 10.895662,94.866554 
	C12.610467,94.866554 14.325273,94.866547 16.040077,94.866547 
	C40.530025,94.866547 65.020630,94.776596 89.509270,94.956169 
	C93.533997,94.985687 96.226273,93.733597 98.921967,90.791199 
	C117.486549,70.527634 136.238144,50.435459 154.885880,30.247807 
	C155.874451,29.177603 156.467117,27.741697 157.244095,26.476038 
	C157.862350,26.895283 158.480621,27.314528 159.098892,27.733772 
	C152.599472,49.838341 146.100052,71.942909 139.359818,94.866539 
	C142.468613,94.866539 145.026413,94.866539 148.072235,94.866539 
M132.090408,125.733826 
	C143.814377,118.752045 155.538330,111.770264 168.345627,104.143349 
	C157.152481,103.495140 147.401108,102.930428 137.070602,102.332176 
	C135.143280,110.257851 133.245605,118.061638 132.090408,125.733826 
z"/>
<path fill="#F1F3F6" opacity="1.000000" stroke="none" 
	d="
M77.208160,162.099854 
	C66.303047,167.586075 55.740856,172.923691 45.178665,178.261292 
	C44.905479,177.760895 44.632298,177.260513 44.359112,176.760117 
	C68.664619,162.481674 92.970123,148.203247 117.383430,133.861481 
	C118.385757,140.725647 117.965462,141.576584 112.265045,144.452957 
	C100.696136,150.290497 89.122665,156.119003 77.208160,162.099854 
z"/>
<path fill="#EEF1F4" opacity="1.000000" stroke="none" 
	d="
M55.487221,139.403290 
	C55.107960,138.888153 54.663509,137.837570 54.976170,137.510284 
	C65.641365,126.346680 76.298004,115.171318 87.212090,104.253792 
	C88.499863,102.965614 91.256912,103.146255 93.332863,102.646011 
	C93.548218,103.085510 93.763573,103.525009 93.978935,103.964500 
	C81.244301,115.711357 68.509674,127.458221 55.487221,139.403290 
z"/>
<path fill="#073579" opacity="1.000000" stroke="none" 
	d="
M131.719177,125.799622 
	C133.245605,118.061638 135.143280,110.257851 137.070602,102.332176 
	C147.401108,102.930428 157.152481,103.495140 168.345627,104.143349 
	C155.538330,111.770264 143.814377,118.752045 131.719177,125.799622 
z"/>
</svg>